<?xml version="1.0" encoding="utf-8"?>
<!-- Generator: Adobe Illustrator 27.7.0, SVG Export Plug-In . SVG Version: 6.00 Build 0)  -->
<svg version="1.0" id="Layer_1" xmlns="http://www.w3.org/2000/svg" xmlns:xlink="http://www.w3.org/1999/xlink" x="0px" y="0px"
	 width="500px" height="800px" viewBox="0 0 500 800" style="enable-background:new 0 0 500 800;" xml:space="preserve">
<style type="text/css">
	.st0{fill:url(#SVGID_1_);}
</style>
<linearGradient id="SVGID_1_" gradientUnits="userSpaceOnUse" x1="250" y1="767.2211" x2="250" y2="32.7789">
	<stop  offset="0" style="stop-color:#3AAA35"/>
	<stop  offset="1" style="stop-color:#95C11F"/>
</linearGradient>
<path class="st0" d="M315,195c22.6-65.3-1-137.1-16-161.7l-0.4,0.3l-0.3-0.8c-53.3,19.9-88.5,53.5-104.6,99.9
	c-22.3,64.5,0.5,135.4,15.5,160.8c0.2,0.3,0.4,0.6,0.5,0.9l0.4-0.3l0.3,0.8C263.8,275,299,241.4,315,195z M225.3,143.6
	c9.7-27.9,28.6-50.1,56.4-66.3c8.8,27.8,14.8,69,1.7,106.7c-9.7,27.9-28.6,50.1-56.5,66.3C218.2,222.6,212.2,181.4,225.3,143.6z
	 M483.9,302.9c-32.3-33.9-69.2-49.6-109.4-46.7c-56,4-102.2,44.3-116.5,63.8c0,0.1-0.1,0.1-0.1,0.2l-0.5-0.3l-89.4,164.4l46.8,1.1
	l-88.4,125l29.2-96.9l-46.9,2.5l59.3-209.6l0.2,0c0.1-0.4,0.1-0.8,0.2-1.2l0.5-1.8l-0.2-0.1c7.3-44.8-1.9-82.7-27.5-112.8
	c-36.8-43.3-97.6-56.6-121.2-56.3l0,0.4l-0.7-0.1c-8.2,46.1,0.9,85.1,27,115.9c26.4,31,65,46.6,93.5,52.9L71,546.1l46.2-2.4
	L49.7,767.2l218.2-308.4l-53.5-1.3l63.7-117.2c27,20.7,56.7,30.1,88.5,27.8c56.7-4.1,103.3-45.3,117-64.5l-0.3-0.2L483.9,302.9z
	 M67,232.7c-15.7-18.5-23.5-41.2-23.3-67.7c23.4,5.4,55.1,18.4,76.3,43.4c15.7,18.5,23.5,41.2,23.3,67.7
	C120,270.8,88.3,257.8,67,232.7z M364.7,340.8c-24.2,1.8-47.2-5.4-68.4-21.2c18.2-15.7,47.4-33.5,80.2-35.9
	c24.2-1.8,47.1,5.4,68.4,21.2C426.6,320.5,397.4,338.4,364.7,340.8z"/>
</svg>
